Coordinates
version=1
nRows=21
nColumns=12
inDegrees=yes

Units are S.I. units (second, meters, Newtons, ...)
Angles are in degrees

endheader
time	SC_y	SC_z	SC_x	AC_y	AC_z	AC_x	GH_y	GH_z	GH_yy	EL_x	PS_y
       0.0              -45.96        -0.4248          57.04           66.7          8.885          15.91         -49.75          3.059         -39.94          111.6          68.32
  0.006762              -45.97        -0.4193          57.04          66.69          8.882          15.91         -49.72          3.056         -39.94          111.6          68.32
   0.01352              -45.97        -0.4134          57.04          66.69           8.88           15.9          -49.7          3.052         -39.94          111.6          68.31
   0.02029              -45.97        -0.4071          57.03          66.68          8.878           15.9         -49.68          3.049         -39.94          111.6          68.31
   0.02705              -45.97        -0.4004          57.03          66.68          8.875          15.89         -49.65          3.045         -39.94          111.6           68.3
   0.03381              -45.97        -0.3933          57.02          66.67          8.872          15.89         -49.62          3.041         -39.94          111.6          68.29
   0.04057              -45.97        -0.3857          57.02          66.66          8.869          15.88         -49.59          3.037         -39.94          111.6          68.29
   0.04734              -45.97        -0.3776          57.01          66.66          8.866          15.88         -49.56          3.033         -39.94          111.6          68.28
    0.0541              -45.98        -0.3689          57.01          66.65          8.862          15.87         -49.53          3.028         -39.94          111.6          68.27
   0.06086              -45.98        -0.3596           57.0          66.64          8.858          15.86         -49.49          3.023         -39.94          111.6          68.27
   0.06762              -45.98        -0.3495           57.0          66.63          8.854          15.86         -49.45          3.017         -39.94          111.5          68.26
   0.07438              -45.98        -0.3388          56.99          66.62           8.85          15.85         -49.41          3.011         -39.94          111.5          68.25
   0.08115              -45.98        -0.3271          56.98          66.61          8.845          15.84         -49.36          3.005         -39.94          111.5          68.24
   0.08791              -45.99        -0.3146          56.98           66.6           8.84          15.83         -49.31          2.998         -39.94          111.5          68.23
   0.09467              -45.99         -0.301          56.97          66.59          8.835          15.82         -49.26          2.991         -39.95          111.5          68.22
    0.1014              -45.99        -0.2862          56.96          66.58          8.829          15.81          -49.2          2.982         -39.95          111.5           68.2
    0.1082              -45.99        -0.2702          56.95          66.56          8.822           15.8         -49.14          2.974         -39.95          111.5          68.19
     0.115               -46.0        -0.2528          56.94          66.55          8.815          15.79         -49.07          2.964         -39.95          111.4          68.18
    0.1217               -46.0        -0.2337          56.93          66.53          8.807          15.77         -48.99          2.954         -39.95          111.4          68.16
    0.1285              -46.01        -0.2129          56.91          66.51          8.799          15.76         -48.91          2.942         -39.95          111.4          68.14
    0.1352              -46.01          -0.19           56.9          66.49           8.79          15.74         -48.82          2.929         -39.95          111.4          68.12
